<mxfile host="app.diagrams.net" modified="2024-02-16T06:31:54.652Z" agent="Mozilla/5.0 (Windows NT 10.0; Win64; x64) AppleWebKit/537.36 (KHTML, like Gecko) Chrome/120.0.0.0 YaBrowser/24.1.0.0 Safari/537.36" etag="eP90N9E4GfOalMZ1XURI" version="22.1.21" type="device">
  <diagram name="Страница — 1" id="vuGAciJmW916HlnfRqTi">
    <mxGraphModel dx="501" dy="2094" grid="1" gridSize="10" guides="1" tooltips="1" connect="1" arrows="1" fold="1" page="1" pageScale="1" pageWidth="827" pageHeight="1169" math="0" shadow="0">
      <root>
        <mxCell id="0" />
        <mxCell id="1" parent="0" />
        <mxCell id="G2PcmpvbA9B_UBScz8tJ-1" value="Start" style="ellipse;whiteSpace=wrap;html=1;" parent="1" vertex="1">
          <mxGeometry x="329" y="-50" width="170" height="80" as="geometry" />
        </mxCell>
        <mxCell id="G2PcmpvbA9B_UBScz8tJ-3" value="" style="edgeStyle=orthogonalEdgeStyle;rounded=0;orthogonalLoop=1;jettySize=auto;html=1;entryX=0.484;entryY=-0.003;entryDx=0;entryDy=0;exitX=0.465;exitY=0.994;exitDx=0;exitDy=0;exitPerimeter=0;entryPerimeter=0;" parent="1" source="G2PcmpvbA9B_UBScz8tJ-1" target="G2PcmpvbA9B_UBScz8tJ-2" edge="1">
          <mxGeometry relative="1" as="geometry">
            <mxPoint x="440" y="80" as="sourcePoint" />
          </mxGeometry>
        </mxCell>
        <mxCell id="G2PcmpvbA9B_UBScz8tJ-17" value="" style="edgeStyle=orthogonalEdgeStyle;rounded=0;orthogonalLoop=1;jettySize=auto;html=1;" parent="1" source="G2PcmpvbA9B_UBScz8tJ-2" target="G2PcmpvbA9B_UBScz8tJ-15" edge="1">
          <mxGeometry relative="1" as="geometry" />
        </mxCell>
        <mxCell id="G2PcmpvbA9B_UBScz8tJ-2" value="Пользователь вводит массив&lt;br&gt;&amp;nbsp;array [123, ABC, :-), 1234, complucter, .i.]" style="shape=parallelogram;perimeter=parallelogramPerimeter;whiteSpace=wrap;html=1;fixedSize=1;" parent="1" vertex="1">
          <mxGeometry x="254" y="70" width="320" height="130" as="geometry" />
        </mxCell>
        <mxCell id="G2PcmpvbA9B_UBScz8tJ-31" style="edgeStyle=orthogonalEdgeStyle;rounded=0;orthogonalLoop=1;jettySize=auto;html=1;entryX=0.5;entryY=1;entryDx=0;entryDy=0;" parent="1" source="G2PcmpvbA9B_UBScz8tJ-4" target="G2PcmpvbA9B_UBScz8tJ-25" edge="1">
          <mxGeometry relative="1" as="geometry" />
        </mxCell>
        <mxCell id="G2PcmpvbA9B_UBScz8tJ-4" value="переходим к след значению массива array[] &lt;br&gt;i+=1" style="rounded=0;whiteSpace=wrap;html=1;" parent="1" vertex="1">
          <mxGeometry x="286" y="517.5" width="254.5" height="45" as="geometry" />
        </mxCell>
        <mxCell id="G2PcmpvbA9B_UBScz8tJ-12" value="" style="edgeStyle=orthogonalEdgeStyle;rounded=0;orthogonalLoop=1;jettySize=auto;html=1;" parent="1" source="G2PcmpvbA9B_UBScz8tJ-10" target="G2PcmpvbA9B_UBScz8tJ-4" edge="1">
          <mxGeometry relative="1" as="geometry" />
        </mxCell>
        <mxCell id="G2PcmpvbA9B_UBScz8tJ-14" value="" style="edgeStyle=orthogonalEdgeStyle;rounded=0;orthogonalLoop=1;jettySize=auto;html=1;" parent="1" source="G2PcmpvbA9B_UBScz8tJ-10" target="G2PcmpvbA9B_UBScz8tJ-13" edge="1">
          <mxGeometry relative="1" as="geometry" />
        </mxCell>
        <mxCell id="G2PcmpvbA9B_UBScz8tJ-10" value="Элемент из 3х символов?&lt;br&gt;array[i].length&amp;lt;=3" style="rhombus;whiteSpace=wrap;html=1;" parent="1" vertex="1">
          <mxGeometry x="650" y="440" width="220" height="200" as="geometry" />
        </mxCell>
        <mxCell id="G2PcmpvbA9B_UBScz8tJ-32" style="edgeStyle=orthogonalEdgeStyle;rounded=0;orthogonalLoop=1;jettySize=auto;html=1;" parent="1" edge="1">
          <mxGeometry relative="1" as="geometry">
            <mxPoint x="410" y="340" as="targetPoint" />
            <mxPoint x="1080" y="540" as="sourcePoint" />
            <Array as="points">
              <mxPoint x="1180" y="540" />
              <mxPoint x="1180" y="340" />
            </Array>
          </mxGeometry>
        </mxCell>
        <mxCell id="G2PcmpvbA9B_UBScz8tJ-13" value="Записываем элемент в массив &lt;br&gt;New []&lt;br&gt;переходим к след значению массива array[] &lt;br&gt;i += 1&lt;br&gt;переходим к след значению массива New[] &lt;br&gt;j += 1" style="whiteSpace=wrap;html=1;" parent="1" vertex="1">
          <mxGeometry x="900" y="487.5" width="270" height="105" as="geometry" />
        </mxCell>
        <mxCell id="G2PcmpvbA9B_UBScz8tJ-26" value="" style="edgeStyle=orthogonalEdgeStyle;rounded=0;orthogonalLoop=1;jettySize=auto;html=1;" parent="1" source="G2PcmpvbA9B_UBScz8tJ-15" target="G2PcmpvbA9B_UBScz8tJ-25" edge="1">
          <mxGeometry relative="1" as="geometry" />
        </mxCell>
        <mxCell id="G2PcmpvbA9B_UBScz8tJ-15" value="Создаётся новый пустой массив&lt;span style=&quot;white-space: pre;&quot;&gt;&#x9;&lt;/span&gt;&lt;span style=&quot;white-space: pre;&quot;&gt;&#x9;&lt;/span&gt;New[]&lt;br&gt;Счетчик по заданному&amp;nbsp; массиву&lt;span style=&quot;white-space: pre;&quot;&gt;&#x9;&lt;/span&gt;&lt;span style=&quot;white-space: pre;&quot;&gt;&#x9;&lt;/span&gt;i = 0&lt;br&gt;Счетчик по пустому&amp;nbsp; массиву&lt;span style=&quot;white-space: pre;&quot;&gt;&#x9;&lt;/span&gt;&lt;span style=&quot;white-space: pre;&quot;&gt;&#x9;&lt;/span&gt;j = 0" style="rounded=0;whiteSpace=wrap;html=1;" parent="1" vertex="1">
          <mxGeometry x="286.5" y="230" width="253" height="80" as="geometry" />
        </mxCell>
        <mxCell id="G2PcmpvbA9B_UBScz8tJ-20" value="Да" style="text;html=1;strokeColor=none;fillColor=none;align=center;verticalAlign=middle;whiteSpace=wrap;rounded=0;" parent="1" vertex="1">
          <mxGeometry x="850" y="510" width="60" height="30" as="geometry" />
        </mxCell>
        <mxCell id="G2PcmpvbA9B_UBScz8tJ-21" value="Нет" style="text;html=1;strokeColor=none;fillColor=none;align=center;verticalAlign=middle;whiteSpace=wrap;rounded=0;" parent="1" vertex="1">
          <mxGeometry x="574" y="510" width="60" height="30" as="geometry" />
        </mxCell>
        <mxCell id="G2PcmpvbA9B_UBScz8tJ-27" value="" style="edgeStyle=orthogonalEdgeStyle;rounded=0;orthogonalLoop=1;jettySize=auto;html=1;" parent="1" source="G2PcmpvbA9B_UBScz8tJ-25" target="G2PcmpvbA9B_UBScz8tJ-10" edge="1">
          <mxGeometry relative="1" as="geometry">
            <Array as="points">
              <mxPoint x="760" y="410" />
            </Array>
          </mxGeometry>
        </mxCell>
        <mxCell id="G2PcmpvbA9B_UBScz8tJ-29" style="edgeStyle=orthogonalEdgeStyle;rounded=0;orthogonalLoop=1;jettySize=auto;html=1;" parent="1" source="G2PcmpvbA9B_UBScz8tJ-25" edge="1">
          <mxGeometry relative="1" as="geometry">
            <mxPoint x="480" y="630" as="targetPoint" />
            <Array as="points">
              <mxPoint x="200" y="410" />
              <mxPoint x="200" y="600" />
              <mxPoint x="480" y="600" />
            </Array>
          </mxGeometry>
        </mxCell>
        <mxCell id="G2PcmpvbA9B_UBScz8tJ-25" value="мы в конце массива?&lt;br&gt;i&amp;lt;array.length" style="rhombus;whiteSpace=wrap;html=1;" parent="1" vertex="1">
          <mxGeometry x="311.5" y="360" width="203" height="100" as="geometry" />
        </mxCell>
        <mxCell id="G2PcmpvbA9B_UBScz8tJ-28" value="нет" style="text;html=1;strokeColor=none;fillColor=none;align=center;verticalAlign=middle;whiteSpace=wrap;rounded=0;" parent="1" vertex="1">
          <mxGeometry x="520" y="380" width="60" height="30" as="geometry" />
        </mxCell>
        <mxCell id="G2PcmpvbA9B_UBScz8tJ-30" value="да" style="text;html=1;strokeColor=none;fillColor=none;align=center;verticalAlign=middle;whiteSpace=wrap;rounded=0;" parent="1" vertex="1">
          <mxGeometry x="240" y="380" width="60" height="30" as="geometry" />
        </mxCell>
        <mxCell id="G2PcmpvbA9B_UBScz8tJ-37" value="" style="edgeStyle=orthogonalEdgeStyle;rounded=0;orthogonalLoop=1;jettySize=auto;html=1;exitX=0.476;exitY=0.869;exitDx=0;exitDy=0;exitPerimeter=0;" parent="1" source="G2PcmpvbA9B_UBScz8tJ-34" target="G2PcmpvbA9B_UBScz8tJ-35" edge="1">
          <mxGeometry relative="1" as="geometry">
            <Array as="points" />
          </mxGeometry>
        </mxCell>
        <mxCell id="G2PcmpvbA9B_UBScz8tJ-34" value="Печатаем новый массив&lt;br&gt;Print New[]" style="shape=document;whiteSpace=wrap;html=1;boundedLbl=1;" parent="1" vertex="1">
          <mxGeometry x="360" y="630" width="240" height="80" as="geometry" />
        </mxCell>
        <mxCell id="G2PcmpvbA9B_UBScz8tJ-35" value="The End" style="ellipse;whiteSpace=wrap;html=1;" parent="1" vertex="1">
          <mxGeometry x="414" y="740" width="120" height="80" as="geometry" />
        </mxCell>
      </root>
    </mxGraphModel>
  </diagram>
</mxfile>
